<?xml version="1.0" encoding="UTF-8" standalone="no"?>
<!DOCTYPE svg PUBLIC "-//W3C//DTD SVG 1.1//EN" "http://www.w3.org/Graphics/SVG/1.1/DTD/svg11.dtd">
<svg width="100%" height="100%" viewBox="0 0 1248 288" version="1.1" xmlns="http://www.w3.org/2000/svg" xmlns:xlink="http://www.w3.org/1999/xlink" xml:space="preserve" xmlns:serif="http://www.serif.com/" style="fill-rule:evenodd;clip-rule:evenodd;stroke-linejoin:round;stroke-miterlimit:2;">
    <g transform="matrix(1,0,0,1,-8880.45018,-8276.60631)">
        <g id="Artboard2" transform="matrix(1.444413,0,0,0.333305,6791.457639,7341.935234)">
            <rect x="1446.257" y="2804.248" width="864" height="864" style="fill:none;"/>
            <g transform="matrix(11.98338,0,0,51.931334,-159487.845314,-369261.202589)">
                <path d="M13488.012,7180.282L13484.315,7180.282L13484.315,7169.192L13482.466,7169.188L13482.466,7180.278L13471.373,7180.278L13471.373,7169.188L13478.768,7169.192L13478.768,7165.492L13488.012,7165.492L13488.012,7180.282ZM13489.862,7176.59L13497.256,7176.59L13497.256,7172.89L13493.556,7172.89L13493.556,7176.59L13489.862,7176.59L13489.862,7169.2L13500.953,7169.195L13500.953,7180.285L13489.862,7180.29L13489.862,7176.59ZM13478.768,7176.582L13478.768,7172.882L13475.071,7172.88L13475.071,7176.58L13478.768,7176.582ZM13449.188,7172.885L13443.645,7172.887L13443.645,7180.287L13436.245,7180.287L13436.245,7176.587L13439.945,7176.587L13439.945,7169.197L13449.188,7169.192L13449.188,7165.492L13452.886,7165.495L13452.886,7169.192L13456.583,7169.2L13456.583,7172.89L13452.883,7172.885L13452.883,7176.585L13456.583,7176.585L13456.583,7180.285L13449.188,7180.285L13449.188,7172.885ZM13434.4,7180.28L13430.7,7180.28L13430.7,7165.49L13434.4,7165.49L13434.4,7180.28ZM13469.532,7169.192L13469.532,7180.282L13458.432,7180.282L13458.432,7169.192L13462.132,7169.192L13462.132,7176.582L13465.832,7176.582L13465.832,7169.192L13469.532,7169.192Z"/>
            </g>
        </g>
    </g>
</svg>
